<mxfile host="app.diagrams.net" modified="2023-05-05T07:59:01.959Z" agent="Mozilla/5.0 (Windows NT 10.0; Win64; x64) AppleWebKit/537.36 (KHTML, like Gecko) Chrome/112.0.0.0 Safari/537.36" etag="oIu04Mqfhcs-GOLRftDr" version="21.2.7" type="github" pages="2">
  <diagram name="render" id="e1oT-nx0cN_IvU85QJFF">
    <mxGraphModel dx="1195" dy="637" grid="0" gridSize="10" guides="1" tooltips="1" connect="1" arrows="1" fold="1" page="1" pageScale="1" pageWidth="1169" pageHeight="827" math="0" shadow="0">
      <root>
        <mxCell id="0" />
        <mxCell id="1" parent="0" />
        <mxCell id="wVjqyNlfLyHgIGJeyx53-1" value="«interface»&lt;br&gt;&lt;div style=&quot;color: rgb(212, 212, 212); background-color: rgb(30, 30, 30); font-family: Consolas, &amp;quot;Courier New&amp;quot;, monospace; font-size: 14px; line-height: 19px;&quot;&gt;IRenderer&lt;/div&gt;" style="html=1;whiteSpace=wrap;" parent="1" vertex="1">
          <mxGeometry x="24" y="94" width="110" height="50" as="geometry" />
        </mxCell>
        <mxCell id="qQzPLSAb_yc15qAoAnq2-8" style="edgeStyle=orthogonalEdgeStyle;rounded=0;orthogonalLoop=1;jettySize=auto;html=1;entryX=1;entryY=0.5;entryDx=0;entryDy=0;" edge="1" parent="1" source="wVjqyNlfLyHgIGJeyx53-2" target="wVjqyNlfLyHgIGJeyx53-1">
          <mxGeometry relative="1" as="geometry" />
        </mxCell>
        <mxCell id="wVjqyNlfLyHgIGJeyx53-2" value="Renderer" style="swimlane;fontStyle=1;align=center;verticalAlign=top;childLayout=stackLayout;horizontal=1;startSize=26;horizontalStack=0;resizeParent=1;resizeParentMax=0;resizeLast=0;collapsible=1;marginBottom=0;whiteSpace=wrap;html=1;" parent="1" vertex="1">
          <mxGeometry x="270" y="134" width="336" height="86" as="geometry" />
        </mxCell>
        <mxCell id="wVjqyNlfLyHgIGJeyx53-3" value="+&amp;nbsp;objectRenderer&lt;span style=&quot;background-color: rgb(30, 30, 30); color: rgb(212, 212, 212); font-family: Consolas, &amp;quot;Courier New&amp;quot;, monospace; font-size: 14px;&quot;&gt;:&amp;nbsp;&lt;/span&gt;&lt;span style=&quot;font-family: Consolas, &amp;quot;Courier New&amp;quot;, monospace; font-size: 14px; color: rgb(78, 201, 176);&quot;&gt;ObjectRendererSystem&lt;/span&gt;" style="text;strokeColor=none;fillColor=none;align=left;verticalAlign=top;spacingLeft=4;spacingRight=4;overflow=hidden;rotatable=0;points=[[0,0.5],[1,0.5]];portConstraint=eastwest;whiteSpace=wrap;html=1;" parent="wVjqyNlfLyHgIGJeyx53-2" vertex="1">
          <mxGeometry y="26" width="336" height="26" as="geometry" />
        </mxCell>
        <mxCell id="wVjqyNlfLyHgIGJeyx53-4" value="" style="line;strokeWidth=1;fillColor=none;align=left;verticalAlign=middle;spacingTop=-1;spacingLeft=3;spacingRight=3;rotatable=0;labelPosition=right;points=[];portConstraint=eastwest;strokeColor=inherit;" parent="wVjqyNlfLyHgIGJeyx53-2" vertex="1">
          <mxGeometry y="52" width="336" height="8" as="geometry" />
        </mxCell>
        <mxCell id="wVjqyNlfLyHgIGJeyx53-5" value="+ method(type): type" style="text;strokeColor=none;fillColor=none;align=left;verticalAlign=top;spacingLeft=4;spacingRight=4;overflow=hidden;rotatable=0;points=[[0,0.5],[1,0.5]];portConstraint=eastwest;whiteSpace=wrap;html=1;" parent="wVjqyNlfLyHgIGJeyx53-2" vertex="1">
          <mxGeometry y="60" width="336" height="26" as="geometry" />
        </mxCell>
        <mxCell id="wVjqyNlfLyHgIGJeyx53-12" style="edgeStyle=orthogonalEdgeStyle;rounded=0;orthogonalLoop=1;jettySize=auto;html=1;" parent="1" source="wVjqyNlfLyHgIGJeyx53-6" target="wVjqyNlfLyHgIGJeyx53-1" edge="1">
          <mxGeometry relative="1" as="geometry" />
        </mxCell>
        <mxCell id="wVjqyNlfLyHgIGJeyx53-6" value="CanvasRenderer" style="swimlane;fontStyle=1;align=center;verticalAlign=top;childLayout=stackLayout;horizontal=1;startSize=26;horizontalStack=0;resizeParent=1;resizeParentMax=0;resizeLast=0;collapsible=1;marginBottom=0;whiteSpace=wrap;html=1;" parent="1" vertex="1">
          <mxGeometry x="270" y="27" width="337" height="86" as="geometry" />
        </mxCell>
        <mxCell id="wVjqyNlfLyHgIGJeyx53-7" value="+&amp;nbsp;objectRenderer&lt;span style=&quot;background-color: rgb(30, 30, 30); color: rgb(212, 212, 212); font-family: Consolas, &amp;quot;Courier New&amp;quot;, monospace; font-size: 14px;&quot;&gt;:&amp;nbsp;&lt;/span&gt;&lt;span style=&quot;font-family: Consolas, &amp;quot;Courier New&amp;quot;, monospace; font-size: 14px; color: rgb(78, 201, 176);&quot;&gt;CanvasObjectRendererSystem&lt;/span&gt;&lt;span style=&quot;background-color: rgb(30, 30, 30); color: rgb(212, 212, 212); font-family: Consolas, &amp;quot;Courier New&amp;quot;, monospace; font-size: 14px;&quot;&gt;;&lt;/span&gt;" style="text;strokeColor=none;fillColor=none;align=left;verticalAlign=top;spacingLeft=4;spacingRight=4;overflow=hidden;rotatable=0;points=[[0,0.5],[1,0.5]];portConstraint=eastwest;whiteSpace=wrap;html=1;" parent="wVjqyNlfLyHgIGJeyx53-6" vertex="1">
          <mxGeometry y="26" width="337" height="26" as="geometry" />
        </mxCell>
        <mxCell id="wVjqyNlfLyHgIGJeyx53-8" value="" style="line;strokeWidth=1;fillColor=none;align=left;verticalAlign=middle;spacingTop=-1;spacingLeft=3;spacingRight=3;rotatable=0;labelPosition=right;points=[];portConstraint=eastwest;strokeColor=inherit;" parent="wVjqyNlfLyHgIGJeyx53-6" vertex="1">
          <mxGeometry y="52" width="337" height="8" as="geometry" />
        </mxCell>
        <mxCell id="wVjqyNlfLyHgIGJeyx53-9" value="+ method(type): type" style="text;strokeColor=none;fillColor=none;align=left;verticalAlign=top;spacingLeft=4;spacingRight=4;overflow=hidden;rotatable=0;points=[[0,0.5],[1,0.5]];portConstraint=eastwest;whiteSpace=wrap;html=1;" parent="wVjqyNlfLyHgIGJeyx53-6" vertex="1">
          <mxGeometry y="60" width="337" height="26" as="geometry" />
        </mxCell>
        <mxCell id="qQzPLSAb_yc15qAoAnq2-1" value="&lt;div style=&quot;color: rgb(212, 212, 212); background-color: rgb(30, 30, 30); font-family: Consolas, &amp;quot;Courier New&amp;quot;, monospace; font-size: 14px; line-height: 19px;&quot;&gt;ObjectRenderer&lt;/div&gt;" style="whiteSpace=wrap;html=1;" vertex="1" parent="1">
          <mxGeometry x="140" y="343" width="120" height="60" as="geometry" />
        </mxCell>
        <mxCell id="qQzPLSAb_yc15qAoAnq2-3" style="edgeStyle=orthogonalEdgeStyle;rounded=0;orthogonalLoop=1;jettySize=auto;html=1;" edge="1" parent="1" source="qQzPLSAb_yc15qAoAnq2-2" target="qQzPLSAb_yc15qAoAnq2-1">
          <mxGeometry relative="1" as="geometry" />
        </mxCell>
        <mxCell id="qQzPLSAb_yc15qAoAnq2-2" value="&lt;div style=&quot;color: rgb(212, 212, 212); background-color: rgb(30, 30, 30); font-family: Consolas, &amp;quot;Courier New&amp;quot;, monospace; font-size: 14px; line-height: 19px;&quot;&gt;BatchRenderer&lt;/div&gt;" style="whiteSpace=wrap;html=1;" vertex="1" parent="1">
          <mxGeometry x="32" y="473" width="120" height="60" as="geometry" />
        </mxCell>
        <mxCell id="qQzPLSAb_yc15qAoAnq2-5" style="edgeStyle=orthogonalEdgeStyle;rounded=0;orthogonalLoop=1;jettySize=auto;html=1;" edge="1" parent="1" source="qQzPLSAb_yc15qAoAnq2-4" target="qQzPLSAb_yc15qAoAnq2-1">
          <mxGeometry relative="1" as="geometry" />
        </mxCell>
        <mxCell id="qQzPLSAb_yc15qAoAnq2-4" value="&lt;div style=&quot;color: rgb(212, 212, 212); background-color: rgb(30, 30, 30); font-family: Consolas, &amp;quot;Courier New&amp;quot;, monospace; font-size: 14px; line-height: 19px;&quot;&gt;ParticleRenderer&lt;/div&gt;" style="whiteSpace=wrap;html=1;" vertex="1" parent="1">
          <mxGeometry x="179" y="473" width="120" height="60" as="geometry" />
        </mxCell>
        <mxCell id="qQzPLSAb_yc15qAoAnq2-7" style="edgeStyle=orthogonalEdgeStyle;rounded=0;orthogonalLoop=1;jettySize=auto;html=1;" edge="1" parent="1" source="qQzPLSAb_yc15qAoAnq2-6" target="qQzPLSAb_yc15qAoAnq2-1">
          <mxGeometry relative="1" as="geometry">
            <Array as="points">
              <mxPoint x="379" y="438" />
              <mxPoint x="200" y="438" />
            </Array>
          </mxGeometry>
        </mxCell>
        <mxCell id="qQzPLSAb_yc15qAoAnq2-6" value="&lt;div style=&quot;color: rgb(212, 212, 212); background-color: rgb(30, 30, 30); font-family: Consolas, &amp;quot;Courier New&amp;quot;, monospace; font-size: 14px; line-height: 19px;&quot;&gt;TilingSpriteRenderer&lt;/div&gt;" style="whiteSpace=wrap;html=1;" vertex="1" parent="1">
          <mxGeometry x="326" y="473" width="120" height="60" as="geometry" />
        </mxCell>
      </root>
    </mxGraphModel>
  </diagram>
  <diagram id="_kAjFn_9z7PhHfTa6r1Q" name="DisplayObject">
    <mxGraphModel dx="1434" dy="764" grid="0" gridSize="10" guides="1" tooltips="1" connect="1" arrows="1" fold="1" page="1" pageScale="1" pageWidth="1169" pageHeight="827" math="0" shadow="0">
      <root>
        <mxCell id="0" />
        <mxCell id="1" parent="0" />
        <mxCell id="FYwhKH93QQUQhRLDwPtf-1" value="&lt;div style=&quot;color: rgb(212, 212, 212); background-color: rgb(30, 30, 30); font-family: Consolas, &amp;quot;Courier New&amp;quot;, monospace; font-size: 14px; line-height: 19px;&quot;&gt;&lt;div&gt;&amp;nbsp;*&amp;nbsp;##&amp;nbsp;Display&amp;nbsp;objects&amp;nbsp;implemented&amp;nbsp;in&amp;nbsp;PixiJS&lt;/div&gt;&lt;div&gt;&lt;span style=&quot;color: #6a9955;&quot;&gt;&amp;nbsp;*&lt;/span&gt;&lt;/div&gt;&lt;div&gt;&lt;span style=&quot;color: #6a9955;&quot;&gt;&amp;nbsp;*&amp;nbsp;|&amp;nbsp;Display&amp;nbsp;Object&amp;nbsp;&amp;nbsp;&amp;nbsp;&amp;nbsp;&amp;nbsp;&amp;nbsp;&amp;nbsp;&amp;nbsp;&amp;nbsp;&amp;nbsp;&amp;nbsp;&amp;nbsp;&amp;nbsp;&amp;nbsp;&amp;nbsp;&amp;nbsp;&amp;nbsp;&amp;nbsp;|&amp;nbsp;Description&amp;nbsp;&amp;nbsp;&amp;nbsp;&amp;nbsp;&amp;nbsp;&amp;nbsp;&amp;nbsp;&amp;nbsp;&amp;nbsp;&amp;nbsp;&amp;nbsp;&amp;nbsp;&amp;nbsp;&amp;nbsp;&amp;nbsp;&amp;nbsp;&amp;nbsp;&amp;nbsp;&amp;nbsp;&amp;nbsp;&amp;nbsp;&amp;nbsp;&amp;nbsp;&amp;nbsp;&amp;nbsp;&amp;nbsp;&amp;nbsp;&amp;nbsp;&amp;nbsp;&amp;nbsp;&amp;nbsp;&amp;nbsp;&amp;nbsp;&amp;nbsp;&amp;nbsp;&amp;nbsp;&amp;nbsp;&amp;nbsp;&amp;nbsp;&amp;nbsp;&amp;nbsp;&amp;nbsp;&amp;nbsp;&amp;nbsp;&amp;nbsp;&amp;nbsp;&amp;nbsp;&amp;nbsp;&amp;nbsp;&amp;nbsp;&amp;nbsp;&amp;nbsp;&amp;nbsp;&amp;nbsp;&amp;nbsp;&amp;nbsp;&amp;nbsp;&amp;nbsp;&amp;nbsp;|&lt;/span&gt;&lt;/div&gt;&lt;div&gt;&lt;span style=&quot;color: #6a9955;&quot;&gt;&amp;nbsp;*&amp;nbsp;|&amp;nbsp;-------------------------------&amp;nbsp;|&amp;nbsp;---------------------------------------------------------------------&amp;nbsp;|&lt;/span&gt;&lt;/div&gt;&lt;div&gt;&lt;span style=&quot;color: #6a9955;&quot;&gt;&amp;nbsp;*&amp;nbsp;|&amp;nbsp;&lt;/span&gt;&lt;span style=&quot;color: #4ec9b0;&quot;&gt;{&lt;/span&gt;&lt;span style=&quot;color: #569cd6;&quot;&gt;@link&lt;/span&gt;&lt;span style=&quot;color: #4ec9b0;&quot;&gt;&amp;nbsp;&lt;/span&gt;&lt;span style=&quot;color: #9cdcfe;&quot;&gt;PIXI.Container&lt;/span&gt;&lt;span style=&quot;color: #4ec9b0;&quot;&gt;}&lt;/span&gt;&lt;span style=&quot;color: #6a9955;&quot;&gt;&amp;nbsp;&amp;nbsp;&amp;nbsp;&amp;nbsp;&amp;nbsp;&amp;nbsp;&amp;nbsp;&amp;nbsp;&amp;nbsp;&amp;nbsp;|&amp;nbsp;Adds&amp;nbsp;support&amp;nbsp;for&amp;nbsp;`children`&amp;nbsp;to&amp;nbsp;DisplayObject&amp;nbsp;&amp;nbsp;&amp;nbsp;&amp;nbsp;&amp;nbsp;&amp;nbsp;&amp;nbsp;&amp;nbsp;&amp;nbsp;&amp;nbsp;&amp;nbsp;&amp;nbsp;&amp;nbsp;&amp;nbsp;&amp;nbsp;&amp;nbsp;&amp;nbsp;&amp;nbsp;&amp;nbsp;&amp;nbsp;&amp;nbsp;&amp;nbsp;&amp;nbsp;&amp;nbsp;&amp;nbsp;&amp;nbsp;|&lt;/span&gt;&lt;/div&gt;&lt;div&gt;&lt;span style=&quot;color: #6a9955;&quot;&gt;&amp;nbsp;*&amp;nbsp;|&amp;nbsp;&lt;/span&gt;&lt;span style=&quot;color: #4ec9b0;&quot;&gt;{&lt;/span&gt;&lt;span style=&quot;color: #569cd6;&quot;&gt;@link&lt;/span&gt;&lt;span style=&quot;color: #4ec9b0;&quot;&gt;&amp;nbsp;&lt;/span&gt;&lt;span style=&quot;color: #9cdcfe;&quot;&gt;PIXI.Graphics&lt;/span&gt;&lt;span style=&quot;color: #4ec9b0;&quot;&gt;}&lt;/span&gt;&lt;span style=&quot;color: #6a9955;&quot;&gt;&amp;nbsp;&amp;nbsp;&amp;nbsp;&amp;nbsp;&amp;nbsp;&amp;nbsp;&amp;nbsp;&amp;nbsp;&amp;nbsp;&amp;nbsp;&amp;nbsp;|&amp;nbsp;Shape-drawing&amp;nbsp;display&amp;nbsp;object&amp;nbsp;similar&amp;nbsp;to&amp;nbsp;the&amp;nbsp;Canvas&amp;nbsp;API&amp;nbsp;&amp;nbsp;&amp;nbsp;&amp;nbsp;&amp;nbsp;&amp;nbsp;&amp;nbsp;&amp;nbsp;&amp;nbsp;&amp;nbsp;&amp;nbsp;&amp;nbsp;&amp;nbsp;&amp;nbsp;&amp;nbsp;&amp;nbsp;|&lt;/span&gt;&lt;/div&gt;&lt;div&gt;&lt;span style=&quot;color: #6a9955;&quot;&gt;&amp;nbsp;*&amp;nbsp;|&amp;nbsp;&lt;/span&gt;&lt;span style=&quot;color: #4ec9b0;&quot;&gt;{&lt;/span&gt;&lt;span style=&quot;color: #569cd6;&quot;&gt;@link&lt;/span&gt;&lt;span style=&quot;color: #4ec9b0;&quot;&gt;&amp;nbsp;&lt;/span&gt;&lt;span style=&quot;color: #9cdcfe;&quot;&gt;PIXI.Sprite&lt;/span&gt;&lt;span style=&quot;color: #4ec9b0;&quot;&gt;}&lt;/span&gt;&lt;span style=&quot;color: #6a9955;&quot;&gt;&amp;nbsp;&amp;nbsp;&amp;nbsp;&amp;nbsp;&amp;nbsp;&amp;nbsp;&amp;nbsp;&amp;nbsp;&amp;nbsp;&amp;nbsp;&amp;nbsp;&amp;nbsp;&amp;nbsp;|&amp;nbsp;Draws&amp;nbsp;textures&amp;nbsp;(i.e.&amp;nbsp;images)&amp;nbsp;&amp;nbsp;&amp;nbsp;&amp;nbsp;&amp;nbsp;&amp;nbsp;&amp;nbsp;&amp;nbsp;&amp;nbsp;&amp;nbsp;&amp;nbsp;&amp;nbsp;&amp;nbsp;&amp;nbsp;&amp;nbsp;&amp;nbsp;&amp;nbsp;&amp;nbsp;&amp;nbsp;&amp;nbsp;&amp;nbsp;&amp;nbsp;&amp;nbsp;&amp;nbsp;&amp;nbsp;&amp;nbsp;&amp;nbsp;&amp;nbsp;&amp;nbsp;&amp;nbsp;&amp;nbsp;&amp;nbsp;&amp;nbsp;&amp;nbsp;&amp;nbsp;&amp;nbsp;&amp;nbsp;&amp;nbsp;&amp;nbsp;&amp;nbsp;&amp;nbsp;&amp;nbsp;|&lt;/span&gt;&lt;/div&gt;&lt;div&gt;&lt;span style=&quot;color: #6a9955;&quot;&gt;&amp;nbsp;*&amp;nbsp;|&amp;nbsp;&lt;/span&gt;&lt;span style=&quot;color: #4ec9b0;&quot;&gt;{&lt;/span&gt;&lt;span style=&quot;color: #569cd6;&quot;&gt;@link&lt;/span&gt;&lt;span style=&quot;color: #4ec9b0;&quot;&gt;&amp;nbsp;&lt;/span&gt;&lt;span style=&quot;color: #9cdcfe;&quot;&gt;PIXI.Text&lt;/span&gt;&lt;span style=&quot;color: #4ec9b0;&quot;&gt;}&lt;/span&gt;&lt;span style=&quot;color: #6a9955;&quot;&gt;&amp;nbsp;&amp;nbsp;&amp;nbsp;&amp;nbsp;&amp;nbsp;&amp;nbsp;&amp;nbsp;&amp;nbsp;&amp;nbsp;&amp;nbsp;&amp;nbsp;&amp;nbsp;&amp;nbsp;&amp;nbsp;&amp;nbsp;|&amp;nbsp;Draws&amp;nbsp;text&amp;nbsp;using&amp;nbsp;the&amp;nbsp;Canvas&amp;nbsp;API&amp;nbsp;internally&amp;nbsp;&amp;nbsp;&amp;nbsp;&amp;nbsp;&amp;nbsp;&amp;nbsp;&amp;nbsp;&amp;nbsp;&amp;nbsp;&amp;nbsp;&amp;nbsp;&amp;nbsp;&amp;nbsp;&amp;nbsp;&amp;nbsp;&amp;nbsp;&amp;nbsp;&amp;nbsp;&amp;nbsp;&amp;nbsp;&amp;nbsp;&amp;nbsp;&amp;nbsp;&amp;nbsp;&amp;nbsp;&amp;nbsp;&amp;nbsp;&amp;nbsp;|&lt;/span&gt;&lt;/div&gt;&lt;div&gt;&lt;span style=&quot;color: #6a9955;&quot;&gt;&amp;nbsp;*&amp;nbsp;|&amp;nbsp;&lt;/span&gt;&lt;span style=&quot;color: #4ec9b0;&quot;&gt;{&lt;/span&gt;&lt;span style=&quot;color: #569cd6;&quot;&gt;@link&lt;/span&gt;&lt;span style=&quot;color: #4ec9b0;&quot;&gt;&amp;nbsp;&lt;/span&gt;&lt;span style=&quot;color: #9cdcfe;&quot;&gt;PIXI.BitmapText&lt;/span&gt;&lt;span style=&quot;color: #4ec9b0;&quot;&gt;}&lt;/span&gt;&lt;span style=&quot;color: #6a9955;&quot;&gt;&amp;nbsp;&amp;nbsp;&amp;nbsp;&amp;nbsp;&amp;nbsp;&amp;nbsp;&amp;nbsp;&amp;nbsp;&amp;nbsp;|&amp;nbsp;More&amp;nbsp;scaleable&amp;nbsp;solution&amp;nbsp;for&amp;nbsp;text&amp;nbsp;rendering,&amp;nbsp;reusing&amp;nbsp;glyph&amp;nbsp;textures&amp;nbsp;&amp;nbsp;&amp;nbsp;&amp;nbsp;|&lt;/span&gt;&lt;/div&gt;&lt;div&gt;&lt;span style=&quot;color: #6a9955;&quot;&gt;&amp;nbsp;*&amp;nbsp;|&amp;nbsp;&lt;/span&gt;&lt;span style=&quot;color: #4ec9b0;&quot;&gt;{&lt;/span&gt;&lt;span style=&quot;color: #569cd6;&quot;&gt;@link&lt;/span&gt;&lt;span style=&quot;color: #4ec9b0;&quot;&gt;&amp;nbsp;&lt;/span&gt;&lt;span style=&quot;color: #9cdcfe;&quot;&gt;PIXI.TilingSprite&lt;/span&gt;&lt;span style=&quot;color: #4ec9b0;&quot;&gt;}&lt;/span&gt;&lt;span style=&quot;color: #6a9955;&quot;&gt;&amp;nbsp;&amp;nbsp;&amp;nbsp;&amp;nbsp;&amp;nbsp;&amp;nbsp;&amp;nbsp;|&amp;nbsp;Draws&amp;nbsp;textures/images&amp;nbsp;in&amp;nbsp;a&amp;nbsp;tiled&amp;nbsp;fashion&amp;nbsp;&amp;nbsp;&amp;nbsp;&amp;nbsp;&amp;nbsp;&amp;nbsp;&amp;nbsp;&amp;nbsp;&amp;nbsp;&amp;nbsp;&amp;nbsp;&amp;nbsp;&amp;nbsp;&amp;nbsp;&amp;nbsp;&amp;nbsp;&amp;nbsp;&amp;nbsp;&amp;nbsp;&amp;nbsp;&amp;nbsp;&amp;nbsp;&amp;nbsp;&amp;nbsp;&amp;nbsp;&amp;nbsp;&amp;nbsp;&amp;nbsp;&amp;nbsp;&amp;nbsp;|&lt;/span&gt;&lt;/div&gt;&lt;div&gt;&lt;span style=&quot;color: #6a9955;&quot;&gt;&amp;nbsp;*&amp;nbsp;|&amp;nbsp;&lt;/span&gt;&lt;span style=&quot;color: #4ec9b0;&quot;&gt;{&lt;/span&gt;&lt;span style=&quot;color: #569cd6;&quot;&gt;@link&lt;/span&gt;&lt;span style=&quot;color: #4ec9b0;&quot;&gt;&amp;nbsp;&lt;/span&gt;&lt;span style=&quot;color: #9cdcfe;&quot;&gt;PIXI.AnimatedSprite&lt;/span&gt;&lt;span style=&quot;color: #4ec9b0;&quot;&gt;}&lt;/span&gt;&lt;span style=&quot;color: #6a9955;&quot;&gt;&amp;nbsp;&amp;nbsp;&amp;nbsp;&amp;nbsp;&amp;nbsp;|&amp;nbsp;Draws&amp;nbsp;an&amp;nbsp;animation&amp;nbsp;of&amp;nbsp;multiple&amp;nbsp;images&amp;nbsp;&amp;nbsp;&amp;nbsp;&amp;nbsp;&amp;nbsp;&amp;nbsp;&amp;nbsp;&amp;nbsp;&amp;nbsp;&amp;nbsp;&amp;nbsp;&amp;nbsp;&amp;nbsp;&amp;nbsp;&amp;nbsp;&amp;nbsp;&amp;nbsp;&amp;nbsp;&amp;nbsp;&amp;nbsp;&amp;nbsp;&amp;nbsp;&amp;nbsp;&amp;nbsp;&amp;nbsp;&amp;nbsp;&amp;nbsp;&amp;nbsp;&amp;nbsp;&amp;nbsp;&amp;nbsp;&amp;nbsp;&amp;nbsp;|&lt;/span&gt;&lt;/div&gt;&lt;div&gt;&lt;span style=&quot;color: #6a9955;&quot;&gt;&amp;nbsp;*&amp;nbsp;|&amp;nbsp;&lt;/span&gt;&lt;span style=&quot;color: #4ec9b0;&quot;&gt;{&lt;/span&gt;&lt;span style=&quot;color: #569cd6;&quot;&gt;@link&lt;/span&gt;&lt;span style=&quot;color: #4ec9b0;&quot;&gt;&amp;nbsp;&lt;/span&gt;&lt;span style=&quot;color: #9cdcfe;&quot;&gt;PIXI.Mesh&lt;/span&gt;&lt;span style=&quot;color: #4ec9b0;&quot;&gt;}&lt;/span&gt;&lt;span style=&quot;color: #6a9955;&quot;&gt;&amp;nbsp;&amp;nbsp;&amp;nbsp;&amp;nbsp;&amp;nbsp;&amp;nbsp;&amp;nbsp;&amp;nbsp;&amp;nbsp;&amp;nbsp;&amp;nbsp;&amp;nbsp;&amp;nbsp;&amp;nbsp;&amp;nbsp;|&amp;nbsp;Provides&amp;nbsp;a&amp;nbsp;lower-level&amp;nbsp;API&amp;nbsp;for&amp;nbsp;drawing&amp;nbsp;meshes&amp;nbsp;with&amp;nbsp;custom&amp;nbsp;data&amp;nbsp;&amp;nbsp;&amp;nbsp;&amp;nbsp;&amp;nbsp;&amp;nbsp;&amp;nbsp;&amp;nbsp;|&lt;/span&gt;&lt;/div&gt;&lt;div&gt;&lt;span style=&quot;color: #6a9955;&quot;&gt;&amp;nbsp;*&amp;nbsp;|&amp;nbsp;&lt;/span&gt;&lt;span style=&quot;color: #4ec9b0;&quot;&gt;{&lt;/span&gt;&lt;span style=&quot;color: #569cd6;&quot;&gt;@link&lt;/span&gt;&lt;span style=&quot;color: #4ec9b0;&quot;&gt;&amp;nbsp;&lt;/span&gt;&lt;span style=&quot;color: #9cdcfe;&quot;&gt;PIXI.NineSlicePlane&lt;/span&gt;&lt;span style=&quot;color: #4ec9b0;&quot;&gt;}&lt;/span&gt;&lt;span style=&quot;color: #6a9955;&quot;&gt;&amp;nbsp;&amp;nbsp;&amp;nbsp;&amp;nbsp;&amp;nbsp;|&amp;nbsp;Mesh-related&amp;nbsp;&amp;nbsp;&amp;nbsp;&amp;nbsp;&amp;nbsp;&amp;nbsp;&amp;nbsp;&amp;nbsp;&amp;nbsp;&amp;nbsp;&amp;nbsp;&amp;nbsp;&amp;nbsp;&amp;nbsp;&amp;nbsp;&amp;nbsp;&amp;nbsp;&amp;nbsp;&amp;nbsp;&amp;nbsp;&amp;nbsp;&amp;nbsp;&amp;nbsp;&amp;nbsp;&amp;nbsp;&amp;nbsp;&amp;nbsp;&amp;nbsp;&amp;nbsp;&amp;nbsp;&amp;nbsp;&amp;nbsp;&amp;nbsp;&amp;nbsp;&amp;nbsp;&amp;nbsp;&amp;nbsp;&amp;nbsp;&amp;nbsp;&amp;nbsp;&amp;nbsp;&amp;nbsp;&amp;nbsp;&amp;nbsp;&amp;nbsp;&amp;nbsp;&amp;nbsp;&amp;nbsp;&amp;nbsp;&amp;nbsp;&amp;nbsp;&amp;nbsp;&amp;nbsp;&amp;nbsp;&amp;nbsp;&amp;nbsp;&amp;nbsp;&amp;nbsp;|&lt;/span&gt;&lt;/div&gt;&lt;div&gt;&lt;span style=&quot;color: #6a9955;&quot;&gt;&amp;nbsp;*&amp;nbsp;|&amp;nbsp;&lt;/span&gt;&lt;span style=&quot;color: #4ec9b0;&quot;&gt;{&lt;/span&gt;&lt;span style=&quot;color: #569cd6;&quot;&gt;@link&lt;/span&gt;&lt;span style=&quot;color: #4ec9b0;&quot;&gt;&amp;nbsp;&lt;/span&gt;&lt;span style=&quot;color: #9cdcfe;&quot;&gt;PIXI.SimpleMesh&lt;/span&gt;&lt;span style=&quot;color: #4ec9b0;&quot;&gt;}&lt;/span&gt;&lt;span style=&quot;color: #6a9955;&quot;&gt;&amp;nbsp;&amp;nbsp;&amp;nbsp;&amp;nbsp;&amp;nbsp;&amp;nbsp;&amp;nbsp;&amp;nbsp;&amp;nbsp;|&amp;nbsp;v4-compatible&amp;nbsp;mesh&amp;nbsp;&amp;nbsp;&amp;nbsp;&amp;nbsp;&amp;nbsp;&amp;nbsp;&amp;nbsp;&amp;nbsp;&amp;nbsp;&amp;nbsp;&amp;nbsp;&amp;nbsp;&amp;nbsp;&amp;nbsp;&amp;nbsp;&amp;nbsp;&amp;nbsp;&amp;nbsp;&amp;nbsp;&amp;nbsp;&amp;nbsp;&amp;nbsp;&amp;nbsp;&amp;nbsp;&amp;nbsp;&amp;nbsp;&amp;nbsp;&amp;nbsp;&amp;nbsp;&amp;nbsp;&amp;nbsp;&amp;nbsp;&amp;nbsp;&amp;nbsp;&amp;nbsp;&amp;nbsp;&amp;nbsp;&amp;nbsp;&amp;nbsp;&amp;nbsp;&amp;nbsp;&amp;nbsp;&amp;nbsp;&amp;nbsp;&amp;nbsp;&amp;nbsp;&amp;nbsp;&amp;nbsp;&amp;nbsp;&amp;nbsp;&amp;nbsp;&amp;nbsp;|&lt;/span&gt;&lt;/div&gt;&lt;div&gt;&lt;span style=&quot;color: #6a9955;&quot;&gt;&amp;nbsp;*&amp;nbsp;|&amp;nbsp;&lt;/span&gt;&lt;span style=&quot;color: #4ec9b0;&quot;&gt;{&lt;/span&gt;&lt;span style=&quot;color: #569cd6;&quot;&gt;@link&lt;/span&gt;&lt;span style=&quot;color: #4ec9b0;&quot;&gt;&amp;nbsp;&lt;/span&gt;&lt;span style=&quot;color: #9cdcfe;&quot;&gt;PIXI.SimplePlane&lt;/span&gt;&lt;span style=&quot;color: #4ec9b0;&quot;&gt;}&lt;/span&gt;&lt;span style=&quot;color: #6a9955;&quot;&gt;&amp;nbsp;&amp;nbsp;&amp;nbsp;&amp;nbsp;&amp;nbsp;&amp;nbsp;&amp;nbsp;&amp;nbsp;|&amp;nbsp;Mesh-related&amp;nbsp;&amp;nbsp;&amp;nbsp;&amp;nbsp;&amp;nbsp;&amp;nbsp;&amp;nbsp;&amp;nbsp;&amp;nbsp;&amp;nbsp;&amp;nbsp;&amp;nbsp;&amp;nbsp;&amp;nbsp;&amp;nbsp;&amp;nbsp;&amp;nbsp;&amp;nbsp;&amp;nbsp;&amp;nbsp;&amp;nbsp;&amp;nbsp;&amp;nbsp;&amp;nbsp;&amp;nbsp;&amp;nbsp;&amp;nbsp;&amp;nbsp;&amp;nbsp;&amp;nbsp;&amp;nbsp;&amp;nbsp;&amp;nbsp;&amp;nbsp;&amp;nbsp;&amp;nbsp;&amp;nbsp;&amp;nbsp;&amp;nbsp;&amp;nbsp;&amp;nbsp;&amp;nbsp;&amp;nbsp;&amp;nbsp;&amp;nbsp;&amp;nbsp;&amp;nbsp;&amp;nbsp;&amp;nbsp;&amp;nbsp;&amp;nbsp;&amp;nbsp;&amp;nbsp;&amp;nbsp;&amp;nbsp;&amp;nbsp;&amp;nbsp;&amp;nbsp;|&lt;/span&gt;&lt;/div&gt;&lt;div&gt;&lt;span style=&quot;color: #6a9955;&quot;&gt;&amp;nbsp;*&amp;nbsp;|&amp;nbsp;&lt;/span&gt;&lt;span style=&quot;color: #4ec9b0;&quot;&gt;{&lt;/span&gt;&lt;span style=&quot;color: #569cd6;&quot;&gt;@link&lt;/span&gt;&lt;span style=&quot;color: #4ec9b0;&quot;&gt;&amp;nbsp;&lt;/span&gt;&lt;span style=&quot;color: #9cdcfe;&quot;&gt;PIXI.SimpleRope&lt;/span&gt;&lt;span style=&quot;color: #4ec9b0;&quot;&gt;}&lt;/span&gt;&lt;span style=&quot;color: #6a9955;&quot;&gt;&amp;nbsp;&amp;nbsp;&amp;nbsp;&amp;nbsp;&amp;nbsp;&amp;nbsp;&amp;nbsp;&amp;nbsp;&amp;nbsp;|&amp;nbsp;Mesh-related&amp;nbsp;&amp;nbsp;&amp;nbsp;&amp;nbsp;&amp;nbsp;&amp;nbsp;&amp;nbsp;&amp;nbsp;&amp;nbsp;&amp;nbsp;&amp;nbsp;&amp;nbsp;&amp;nbsp;&amp;nbsp;&amp;nbsp;&amp;nbsp;&amp;nbsp;&amp;nbsp;&amp;nbsp;&amp;nbsp;&amp;nbsp;&amp;nbsp;&amp;nbsp;&amp;nbsp;&amp;nbsp;&amp;nbsp;&amp;nbsp;&amp;nbsp;&amp;nbsp;&amp;nbsp;&amp;nbsp;&amp;nbsp;&amp;nbsp;&amp;nbsp;&amp;nbsp;&amp;nbsp;&amp;nbsp;&amp;nbsp;&amp;nbsp;&amp;nbsp;&amp;nbsp;&amp;nbsp;&amp;nbsp;&amp;nbsp;&amp;nbsp;&amp;nbsp;&amp;nbsp;&amp;nbsp;&amp;nbsp;&amp;nbsp;&amp;nbsp;&amp;nbsp;&amp;nbsp;&amp;nbsp;&amp;nbsp;&amp;nbsp;&amp;nbsp;&amp;nbsp;|&lt;/span&gt;&lt;/div&gt;&lt;/div&gt;" style="text;html=1;align=left;verticalAlign=middle;resizable=0;points=[];autosize=1;strokeColor=none;fillColor=none;" vertex="1" parent="1">
          <mxGeometry x="2" y="3" width="865" height="316" as="geometry" />
        </mxCell>
        <mxCell id="FYwhKH93QQUQhRLDwPtf-6" value="&lt;div style=&quot;color: rgb(212, 212, 212); background-color: rgb(30, 30, 30); font-family: Consolas, &amp;quot;Courier New&amp;quot;, monospace; font-size: 14px; line-height: 19px;&quot;&gt;DisplayObject&lt;/div&gt;" style="html=1;whiteSpace=wrap;" vertex="1" parent="1">
          <mxGeometry x="326" y="336" width="110" height="50" as="geometry" />
        </mxCell>
        <mxCell id="FYwhKH93QQUQhRLDwPtf-8" style="edgeStyle=orthogonalEdgeStyle;rounded=0;orthogonalLoop=1;jettySize=auto;html=1;" edge="1" parent="1" source="FYwhKH93QQUQhRLDwPtf-7" target="FYwhKH93QQUQhRLDwPtf-6">
          <mxGeometry relative="1" as="geometry" />
        </mxCell>
        <mxCell id="FYwhKH93QQUQhRLDwPtf-7" value="&lt;div style=&quot;color: rgb(212, 212, 212); background-color: rgb(30, 30, 30); font-family: Consolas, &amp;quot;Courier New&amp;quot;, monospace; font-size: 14px; line-height: 19px;&quot;&gt;Container&lt;/div&gt;" style="whiteSpace=wrap;html=1;" vertex="1" parent="1">
          <mxGeometry x="321" y="408" width="120" height="60" as="geometry" />
        </mxCell>
        <mxCell id="FYwhKH93QQUQhRLDwPtf-18" style="edgeStyle=orthogonalEdgeStyle;rounded=0;orthogonalLoop=1;jettySize=auto;html=1;" edge="1" parent="1" source="FYwhKH93QQUQhRLDwPtf-9" target="FYwhKH93QQUQhRLDwPtf-7">
          <mxGeometry relative="1" as="geometry">
            <Array as="points">
              <mxPoint x="232" y="504" />
              <mxPoint x="381" y="504" />
            </Array>
          </mxGeometry>
        </mxCell>
        <mxCell id="FYwhKH93QQUQhRLDwPtf-9" value="&lt;div style=&quot;color: rgb(212, 212, 212); background-color: rgb(30, 30, 30); font-family: Consolas, &amp;quot;Courier New&amp;quot;, monospace; font-size: 14px; line-height: 19px;&quot;&gt;Sprite&lt;/div&gt;" style="whiteSpace=wrap;html=1;" vertex="1" parent="1">
          <mxGeometry x="172" y="517" width="120" height="60" as="geometry" />
        </mxCell>
        <mxCell id="FYwhKH93QQUQhRLDwPtf-19" style="edgeStyle=orthogonalEdgeStyle;rounded=0;orthogonalLoop=1;jettySize=auto;html=1;" edge="1" parent="1" source="FYwhKH93QQUQhRLDwPtf-11" target="FYwhKH93QQUQhRLDwPtf-7">
          <mxGeometry relative="1" as="geometry" />
        </mxCell>
        <mxCell id="FYwhKH93QQUQhRLDwPtf-11" value="&lt;div style=&quot;color: rgb(212, 212, 212); background-color: rgb(30, 30, 30); font-family: Consolas, &amp;quot;Courier New&amp;quot;, monospace; font-size: 14px; line-height: 19px;&quot;&gt;Graphics&lt;/div&gt;" style="whiteSpace=wrap;html=1;" vertex="1" parent="1">
          <mxGeometry x="321" y="517" width="120" height="60" as="geometry" />
        </mxCell>
        <mxCell id="FYwhKH93QQUQhRLDwPtf-15" style="edgeStyle=orthogonalEdgeStyle;rounded=0;orthogonalLoop=1;jettySize=auto;html=1;" edge="1" parent="1" source="FYwhKH93QQUQhRLDwPtf-14" target="FYwhKH93QQUQhRLDwPtf-9">
          <mxGeometry relative="1" as="geometry">
            <Array as="points">
              <mxPoint x="77" y="606" />
              <mxPoint x="232" y="606" />
            </Array>
          </mxGeometry>
        </mxCell>
        <mxCell id="FYwhKH93QQUQhRLDwPtf-14" value="&lt;div style=&quot;color: rgb(212, 212, 212); background-color: rgb(30, 30, 30); font-family: Consolas, &amp;quot;Courier New&amp;quot;, monospace; font-size: 14px; line-height: 19px;&quot;&gt;Text&lt;/div&gt;" style="whiteSpace=wrap;html=1;" vertex="1" parent="1">
          <mxGeometry x="17" y="630" width="120" height="60" as="geometry" />
        </mxCell>
        <mxCell id="FYwhKH93QQUQhRLDwPtf-20" style="edgeStyle=orthogonalEdgeStyle;rounded=0;orthogonalLoop=1;jettySize=auto;html=1;" edge="1" parent="1" source="FYwhKH93QQUQhRLDwPtf-16" target="FYwhKH93QQUQhRLDwPtf-7">
          <mxGeometry relative="1" as="geometry">
            <Array as="points">
              <mxPoint x="530" y="504" />
              <mxPoint x="381" y="504" />
            </Array>
          </mxGeometry>
        </mxCell>
        <mxCell id="FYwhKH93QQUQhRLDwPtf-16" value="&lt;div style=&quot;color: rgb(212, 212, 212); background-color: rgb(30, 30, 30); font-family: Consolas, &amp;quot;Courier New&amp;quot;, monospace; font-size: 14px; line-height: 19px;&quot;&gt;BitmapText&lt;/div&gt;" style="whiteSpace=wrap;html=1;" vertex="1" parent="1">
          <mxGeometry x="470" y="517" width="120" height="60" as="geometry" />
        </mxCell>
        <mxCell id="FYwhKH93QQUQhRLDwPtf-22" style="edgeStyle=orthogonalEdgeStyle;rounded=0;orthogonalLoop=1;jettySize=auto;html=1;" edge="1" parent="1" source="FYwhKH93QQUQhRLDwPtf-21" target="FYwhKH93QQUQhRLDwPtf-9">
          <mxGeometry relative="1" as="geometry" />
        </mxCell>
        <mxCell id="FYwhKH93QQUQhRLDwPtf-21" value="&lt;div style=&quot;color: rgb(212, 212, 212); background-color: rgb(30, 30, 30); font-family: Consolas, &amp;quot;Courier New&amp;quot;, monospace; font-size: 14px; line-height: 19px;&quot;&gt;TilingSprite&lt;/div&gt;" style="whiteSpace=wrap;html=1;" vertex="1" parent="1">
          <mxGeometry x="172" y="630" width="120" height="60" as="geometry" />
        </mxCell>
        <mxCell id="FYwhKH93QQUQhRLDwPtf-24" style="edgeStyle=orthogonalEdgeStyle;rounded=0;orthogonalLoop=1;jettySize=auto;html=1;" edge="1" parent="1" source="FYwhKH93QQUQhRLDwPtf-23" target="FYwhKH93QQUQhRLDwPtf-9">
          <mxGeometry relative="1" as="geometry">
            <Array as="points">
              <mxPoint x="386" y="605" />
              <mxPoint x="232" y="605" />
            </Array>
          </mxGeometry>
        </mxCell>
        <mxCell id="FYwhKH93QQUQhRLDwPtf-23" value="&lt;div style=&quot;color: rgb(212, 212, 212); background-color: rgb(30, 30, 30); font-family: Consolas, &amp;quot;Courier New&amp;quot;, monospace; font-size: 14px; line-height: 19px;&quot;&gt;AnimatedSprite&lt;/div&gt;" style="whiteSpace=wrap;html=1;" vertex="1" parent="1">
          <mxGeometry x="326" y="630" width="120" height="60" as="geometry" />
        </mxCell>
        <mxCell id="FYwhKH93QQUQhRLDwPtf-26" style="edgeStyle=orthogonalEdgeStyle;rounded=0;orthogonalLoop=1;jettySize=auto;html=1;" edge="1" parent="1" source="FYwhKH93QQUQhRLDwPtf-25" target="FYwhKH93QQUQhRLDwPtf-7">
          <mxGeometry relative="1" as="geometry">
            <Array as="points">
              <mxPoint x="679" y="504" />
              <mxPoint x="381" y="504" />
            </Array>
          </mxGeometry>
        </mxCell>
        <mxCell id="FYwhKH93QQUQhRLDwPtf-25" value="&lt;div style=&quot;color: rgb(212, 212, 212); background-color: rgb(30, 30, 30); font-family: Consolas, &amp;quot;Courier New&amp;quot;, monospace; font-size: 14px; line-height: 19px;&quot;&gt;Mesh&lt;/div&gt;" style="whiteSpace=wrap;html=1;" vertex="1" parent="1">
          <mxGeometry x="619" y="517" width="120" height="60" as="geometry" />
        </mxCell>
        <mxCell id="FYwhKH93QQUQhRLDwPtf-28" style="edgeStyle=orthogonalEdgeStyle;rounded=0;orthogonalLoop=1;jettySize=auto;html=1;" edge="1" parent="1" source="FYwhKH93QQUQhRLDwPtf-27" target="FYwhKH93QQUQhRLDwPtf-25">
          <mxGeometry relative="1" as="geometry" />
        </mxCell>
        <mxCell id="FYwhKH93QQUQhRLDwPtf-27" value="&lt;div style=&quot;color: rgb(212, 212, 212); background-color: rgb(30, 30, 30); font-family: Consolas, &amp;quot;Courier New&amp;quot;, monospace; font-size: 14px; line-height: 19px;&quot;&gt;SimpleMesh&lt;/div&gt;" style="whiteSpace=wrap;html=1;" vertex="1" parent="1">
          <mxGeometry x="517" y="630" width="120" height="60" as="geometry" />
        </mxCell>
        <mxCell id="FYwhKH93QQUQhRLDwPtf-30" style="edgeStyle=orthogonalEdgeStyle;rounded=0;orthogonalLoop=1;jettySize=auto;html=1;" edge="1" parent="1" source="FYwhKH93QQUQhRLDwPtf-29" target="FYwhKH93QQUQhRLDwPtf-25">
          <mxGeometry relative="1" as="geometry" />
        </mxCell>
        <mxCell id="FYwhKH93QQUQhRLDwPtf-29" value="&lt;div style=&quot;color: rgb(212, 212, 212); background-color: rgb(30, 30, 30); font-family: Consolas, &amp;quot;Courier New&amp;quot;, monospace; font-size: 14px; line-height: 19px;&quot;&gt;SimplePlane&lt;/div&gt;" style="whiteSpace=wrap;html=1;" vertex="1" parent="1">
          <mxGeometry x="656" y="630" width="120" height="60" as="geometry" />
        </mxCell>
        <mxCell id="FYwhKH93QQUQhRLDwPtf-32" style="edgeStyle=orthogonalEdgeStyle;rounded=0;orthogonalLoop=1;jettySize=auto;html=1;" edge="1" parent="1" source="FYwhKH93QQUQhRLDwPtf-31" target="FYwhKH93QQUQhRLDwPtf-25">
          <mxGeometry relative="1" as="geometry">
            <Array as="points">
              <mxPoint x="850" y="603" />
              <mxPoint x="679" y="603" />
            </Array>
          </mxGeometry>
        </mxCell>
        <mxCell id="FYwhKH93QQUQhRLDwPtf-31" value="&lt;div style=&quot;color: rgb(212, 212, 212); background-color: rgb(30, 30, 30); font-family: Consolas, &amp;quot;Courier New&amp;quot;, monospace; font-size: 14px; line-height: 19px;&quot;&gt;SimpleRope&lt;/div&gt;" style="whiteSpace=wrap;html=1;" vertex="1" parent="1">
          <mxGeometry x="788" y="630" width="120" height="60" as="geometry" />
        </mxCell>
      </root>
    </mxGraphModel>
  </diagram>
</mxfile>
